{
  "accessors": [
    {
      "bufferView": 1,
      "componentType": 5126,
      "count": 31783,
      "max": [
        92.89070129394531,
        -14.039299964904785,
        42.46110153198242
      ],
      "min": [
        -115.89089965820313,
        -64.02960205078125,
        -7.529200077056885
      ],
      "type": "VEC3"
    },
    {
      "bufferView": 1,
      "byteOffset": 381396,
      "componentType": 5126,
      "count": 31783,
      "max": [
        1.0,
        1.0,
        1.0
      ],
      "min": [
        -1.0,
        -1.0,
        -1.0
      ],
      "type": "VEC3"
    },
    {
      "bufferView": 0,
      "componentType": 5125,
      "count": 122859,
      "type": "SCALAR"
    },
    {
      "bufferView": 1,
      "byteOffset": 762792,
      "componentType": 5126,
      "count": 7881,
      "max": [
        95.07849884033203,
        -19.010700225830078,
        37.48929977416992
      ],
      "min": [
        0.3476000130176544,
        -59.05780029296875,
        -2.557800054550171
      ],
      "type": "VEC3"
    },
    {
      "bufferView": 1,
      "byteOffset": 857364,
      "componentType": 5126,
      "count": 7881,
      "max": [
        1.0,
        1.0,
        1.0
      ],
      "min": [
        -1.0,
        -1.0,
        -1.0
      ],
      "type": "VEC3"
    },
    {
      "bufferView": 0,
      "byteOffset": 491436,
      "componentType": 5125,
      "count": 35391,
      "type": "SCALAR"
    },
    {
      "bufferView": 1,
      "byteOffset": 951936,
      "componentType": 5126,
      "count": 12904,
      "max": [
        104.0,
        -14.0,
        42.5
      ],
      "min": [
        -91.78959655761719,
        -64.06849670410156,
        -7.56850004196167
      ],
      "type": "VEC3"
    },
    {
      "bufferView": 1,
      "byteOffset": 1106784,
      "componentType": 5126,
      "count": 12904,
      "max": [
        1.0,
        1.0,
        1.0
      ],
      "min": [
        -1.0,
        -1.0,
        -1.0
      ],
      "type": "VEC3"
    },
    {
      "bufferView": 0,
      "byteOffset": 633000,
      "componentType": 5125,
      "count": 48279,
      "type": "SCALAR"
    },
    {
      "bufferView": 1,
      "byteOffset": 1261632,
      "componentType": 5126,
      "count": 28920,
      "max": [
        98.739501953125,
        -14.317899703979492,
        42.182098388671875
      ],
      "min": [
        -115.56649780273438,
        -63.75019836425781,
        -7.250199794769287
      ],
      "type": "VEC3"
    },
    {
      "bufferView": 1,
      "byteOffset": 1608672,
      "componentType": 5126,
      "count": 28920,
      "max": [
        1.0,
        1.0,
        1.0
      ],
      "min": [
        -1.0,
        -1.0,
        -1.0
      ],
      "type": "VEC3"
    },
    {
      "bufferView": 0,
      "byteOffset": 826116,
      "componentType": 5125,
      "count": 96636,
      "type": "SCALAR"
    }
  ],
  "asset": {
    "extras": {
      "author": "Jamesrjuniper (https://sketchfab.com/Jamesrjuniper)",
      "license": "CC-BY-NC-SA-4.0 (http://creativecommons.org/licenses/by-nc-sa/4.0/)",
      "source": "https://sketchfab.com/3d-models/destroyer-spacecraft-1-a76f7099051a4e40972f2f7fcb4f6f87",
      "title": "Destroyer Spacecraft (1)"
    },
    "generator": "Sketchfab-15.23.0",
    "version": "2.0"
  },
  "bufferViews": [
    {
      "buffer": 0,
      "byteLength": 1212660,
      "name": "floatBufferViews",
      "target": 34963
    },
    {
      "buffer": 0,
      "byteLength": 1955712,
      "byteOffset": 1212660,
      "byteStride": 12,
      "name": "floatBufferViews",
      "target": 34962
    }
  ],
  "buffers": [
    {
      "byteLength": 3168372,
      "uri": "scene.bin"
    }
  ],
  "materials": [
    {
      "doubleSided": true,
      "name": "color_10988977",
      "pbrMetallicRoughness": {
        "baseColorFactor": [
          0.654902,
          0.678431,
          0.694118,
          1.0
        ],
        "metallicFactor": 0.0
      }
    },
    {
      "doubleSided": true,
      "name": "color_12568524",
      "pbrMetallicRoughness": {
        "baseColorFactor": [
          0.74902,
          0.780392,
          0.8,
          1.0
        ],
        "metallicFactor": 0.0
      }
    },
    {
      "doubleSided": true,
      "name": "color_16089887",
      "pbrMetallicRoughness": {
        "baseColorFactor": [
          0.960784,
          0.513726,
          0.121569,
          1.0
        ],
        "metallicFactor": 0.0
      }
    },
    {
      "doubleSided": true,
      "name": "color_16448250",
      "pbrMetallicRoughness": {
        "baseColorFactor": [
          0.980392,
          0.980392,
          0.980392,
          1.0
        ],
        "metallicFactor": 0.0
      }
    }
  ],
  "meshes": [
    {
      "name": "Object_0",
      "primitives": [
        {
          "attributes": {
            "NORMAL": 1,
            "POSITION": 0
          },
          "indices": 2,
          "material": 0,
          "mode": 4
        }
      ]
    },
    {
      "name": "Object_1",
      "primitives": [
        {
          "attributes": {
            "NORMAL": 4,
            "POSITION": 3
          },
          "indices": 5,
          "material": 1,
          "mode": 4
        }
      ]
    },
    {
      "name": "Object_2",
      "primitives": [
        {
          "attributes": {
            "NORMAL": 7,
            "POSITION": 6
          },
          "indices": 8,
          "material": 2,
          "mode": 4
        }
      ]
    },
    {
      "name": "Object_3",
      "primitives": [
        {
          "attributes": {
            "NORMAL": 10,
            "POSITION": 9
          },
          "indices": 11,
          "material": 3,
          "mode": 4
        }
      ]
    }
  ],
  "nodes": [
    {
      "children": [
        1
      ],
      "matrix": [
        1.0,
        0.0,
        0.0,
        0.0,
        0.0,
        2.220446049250313e-16,
        -1.0,
        0.0,
        0.0,
        1.0,
        2.220446049250313e-16,
        0.0,
        0.0,
        0.0,
        0.0,
        1.0
      ],
      "name": "Sketchfab_model"
    },
    {
      "children": [
        2,
        3,
        4,
        5
      ],
      "name": "tinker.obj.cleaner.materialmerger.gles"
    },
    {
      "mesh": 0,
      "name": "Object_2"
    },
    {
      "mesh": 1,
      "name": "Object_3"
    },
    {
      "mesh": 2,
      "name": "Object_4"
    },
    {
      "mesh": 3,
      "name": "Object_5"
    }
  ],
  "scene": 0,
  "scenes": [
    {
      "name": "Sketchfab_Scene",
      "nodes": [
        0
      ]
    }
  ]
}
